<svg width="233" height="232" viewBox="0 0 233 232" fill="none" xmlns="http://www.w3.org/2000/svg">
<path d="M209.04 3.5H24.04C12.9943 3.5 4.04004 12.4543 4.04004 23.5V208.5C4.04004 219.546 12.9943 228.5 24.04 228.5H209.04C220.086 228.5 229.04 219.546 229.04 208.5V23.5C229.04 12.4543 220.086 3.5 209.04 3.5Z" stroke="#262626" stroke-width="7" stroke-linecap="round" stroke-linejoin="round"/>
<path d="M164.22 100.7V148.7C164.22 153.861 163.203 158.971 161.228 163.739C159.253 168.508 156.359 172.84 152.709 176.489C149.06 180.139 144.728 183.033 139.959 185.008C135.191 186.983 130.081 188 124.92 188H108.17C97.747 188 87.7509 183.859 80.3807 176.489C73.0105 169.119 68.87 159.123 68.87 148.7V101.31" stroke="#262626" stroke-width="7" stroke-linecap="round" stroke-linejoin="round"/>
<path d="M68.87 101.34V55.92C68.87 52.7586 70.1258 49.7267 72.3613 47.4913C74.5967 45.2558 77.6286 44 80.79 44C83.9496 44.0027 86.979 45.2597 89.2122 47.4948C91.4455 49.73 92.7 52.7604 92.7 55.92V101.34" stroke="#262626" stroke-width="7" stroke-linecap="round" stroke-linejoin="round"/>
<path d="M140.38 101.34V55.92C140.38 54.3547 140.688 52.8046 141.287 51.3584C141.886 49.9122 142.764 48.5981 143.871 47.4913C144.978 46.3844 146.292 45.5064 147.738 44.9073C149.185 44.3083 150.735 44 152.3 44V44C155.461 44 158.493 45.2558 160.729 47.4913C162.964 49.7267 164.22 52.7586 164.22 55.92V101.34" stroke="#262626" stroke-width="7" stroke-linecap="round" stroke-linejoin="round"/>
<path d="M92.7 113.58V91.36C92.7 88.1986 93.9559 85.1667 96.1913 82.9313C98.4267 80.6958 101.459 79.44 104.62 79.44V79.44C106.186 79.4387 107.736 79.7461 109.183 80.3447C110.63 80.9432 111.945 81.8212 113.052 82.9283C114.159 84.0355 115.037 85.3501 115.635 86.7968C116.234 88.2436 116.541 89.7943 116.54 91.36V97.48" stroke="#262626" stroke-width="7" stroke-linecap="round" stroke-linejoin="round"/>
<path d="M116.54 115.28V91.36C116.54 88.1986 117.796 85.1667 120.031 82.9313C122.267 80.6958 125.299 79.44 128.46 79.44V79.44C130.026 79.4387 131.576 79.7461 133.023 80.3447C134.47 80.9432 135.784 81.8212 136.892 82.9283C137.999 84.0355 138.877 85.3501 139.475 86.7968C140.074 88.2436 140.381 89.7943 140.38 91.36V120.36C140.38 121.925 140.072 123.475 139.473 124.922C138.874 126.368 137.996 127.682 136.889 128.789C135.782 129.896 134.468 130.774 133.022 131.373C131.575 131.972 130.025 132.28 128.46 132.28V132.28C126.09 132.297 123.769 131.6 121.8 130.28" stroke="#262626" stroke-width="7" stroke-linecap="round" stroke-linejoin="round"/>
<path d="M68.87 127.58C68.87 123.867 70.345 120.306 72.9705 117.681C75.596 115.055 79.157 113.58 82.87 113.58H110.42C113.581 113.58 116.613 114.836 118.849 117.071C121.084 119.307 122.34 122.339 122.34 125.5C122.341 127.066 122.034 128.616 121.435 130.063C120.837 131.51 119.959 132.825 118.852 133.932C117.745 135.039 116.43 135.917 114.983 136.515C113.536 137.114 111.986 137.421 110.42 137.42H91.87" stroke="#262626" stroke-width="7" stroke-linecap="round" stroke-linejoin="round"/>
<path d="M105.59 137.42C109.009 137.42 112.287 138.778 114.705 141.195C117.122 143.613 118.48 146.891 118.48 150.31V158.68" stroke="#262626" stroke-width="7" stroke-linecap="round" stroke-linejoin="round"/>
</svg>
