<svg width="232" height="232" viewBox="0 0 232 232" fill="none" xmlns="http://www.w3.org/2000/svg">
<path d="M208.5 3.5H23.5C12.4543 3.5 3.5 12.4543 3.5 23.5V208.5C3.5 219.546 12.4543 228.5 23.5 228.5H208.5C219.546 228.5 228.5 219.546 228.5 208.5V23.5C228.5 12.4543 219.546 3.5 208.5 3.5Z" stroke="#262626" stroke-width="7" stroke-linecap="round" stroke-linejoin="round"/>
<path d="M95.62 47H83.06C81.4129 46.9987 79.7816 47.3221 78.2596 47.9519C76.7376 48.5816 75.3547 49.5052 74.19 50.67C73.0253 51.8347 72.1016 53.2176 71.4719 54.7396C70.8422 56.2616 70.5187 57.8929 70.52 59.54V166.18" stroke="#262626" stroke-width="7" stroke-linecap="round" stroke-linejoin="round"/>
<path d="M152.06 72.1V66.25V65.82" stroke="#262626" stroke-width="7" stroke-linecap="round" stroke-linejoin="round"/>
<path d="M95.62 47H164.62C166.267 47 167.897 47.3244 169.419 47.9546C170.94 48.5848 172.323 49.5084 173.487 50.6729C174.652 51.8373 175.575 53.2197 176.205 54.7411C176.836 56.2626 177.16 57.8932 177.16 59.54V66.25H152.06" stroke="#262626" stroke-width="7" stroke-linecap="round" stroke-linejoin="round"/>
<path d="M164.62 47C162.972 46.9987 161.34 47.322 159.817 47.9515C158.293 48.581 156.909 49.5043 155.743 50.6687C154.577 51.8332 153.651 53.216 153.019 54.7381C152.387 56.2602 152.061 57.8919 152.06 59.54V65.82" stroke="#262626" stroke-width="7" stroke-linecap="round" stroke-linejoin="round"/>
<path d="M139.52 185C137.875 184.999 136.245 184.673 134.726 184.042C133.206 183.411 131.826 182.487 130.663 181.323C129.5 180.159 128.578 178.777 127.95 177.256C127.321 175.735 126.999 174.105 127 172.46V166.18H58C57.168 166.183 56.3709 166.514 55.7826 167.103C55.1943 167.691 54.8626 168.488 54.86 169.32V172.46C54.8587 174.105 55.1815 175.735 55.81 177.256C56.4384 178.777 57.3603 180.159 58.5229 181.323C59.6855 182.487 61.066 183.411 62.5857 184.042C64.1054 184.673 65.7345 184.999 67.38 185H139.52ZM139.52 185C141.167 185.001 142.798 184.678 144.32 184.048C145.842 183.418 147.225 182.495 148.39 181.33C149.555 180.165 150.478 178.782 151.108 177.26C151.738 175.738 152.061 174.107 152.06 172.46V72.1" stroke="#262626" stroke-width="7" stroke-linecap="round" stroke-linejoin="round"/>
</svg>
