<svg width="233" height="232" viewBox="0 0 233 232" fill="none" xmlns="http://www.w3.org/2000/svg">
<path d="M208.96 3.5H23.9601C12.9144 3.5 3.96008 12.4543 3.96008 23.5V208.5C3.96008 219.546 12.9144 228.5 23.9601 228.5H208.96C220.006 228.5 228.96 219.546 228.96 208.5V23.5C228.96 12.4543 220.006 3.5 208.96 3.5Z" stroke="#262626" stroke-width="7" stroke-linecap="round" stroke-linejoin="round"/>
<path d="M118.28 142.18L129.55 155.27" stroke="#262626" stroke-width="7" stroke-linecap="round" stroke-linejoin="round"/>
<path d="M116.46 104.54L69.0801 44C60.8201 59.17 62.9901 78.59 74.3301 91.1L101.39 122.55" stroke="#262626" stroke-width="7" stroke-linecap="round" stroke-linejoin="round"/>
<path d="M145.91 142.18L132.82 125.45" stroke="#262626" stroke-width="7" stroke-linecap="round" stroke-linejoin="round"/>
<path d="M88.6401 142.18L165.47 44C173.73 59.17 171.56 78.59 160.22 91.1L103.37 158.55" stroke="#262626" stroke-width="7" stroke-linecap="round" stroke-linejoin="round"/>
<path d="M118.09 120.91C118.415 120.908 118.733 121.003 119.004 121.182C119.275 121.361 119.487 121.616 119.612 121.915C119.738 122.215 119.772 122.545 119.71 122.864C119.648 123.183 119.492 123.476 119.263 123.706C119.034 123.936 118.742 124.094 118.424 124.158C118.105 124.222 117.775 124.19 117.475 124.066C117.175 123.942 116.918 123.732 116.737 123.462C116.557 123.192 116.46 122.875 116.46 122.55C116.459 122.335 116.5 122.122 116.581 121.923C116.663 121.724 116.782 121.543 116.934 121.391C117.085 121.239 117.266 121.118 117.464 121.035C117.662 120.952 117.875 120.91 118.09 120.91Z" stroke="#262626" stroke-width="7" stroke-linecap="round" stroke-linejoin="round"/>
<path d="M80.4601 188C93.1129 188 103.37 177.743 103.37 165.09C103.37 152.437 93.1129 142.18 80.4601 142.18C67.8072 142.18 57.55 152.437 57.55 165.09C57.55 177.743 67.8072 188 80.4601 188Z" stroke="#262626" stroke-width="7" stroke-linecap="round" stroke-linejoin="round"/>
<path d="M80.4601 174.91C85.8835 174.91 90.2801 170.513 90.2801 165.09C90.2801 159.667 85.8835 155.27 80.4601 155.27C75.0366 155.27 70.6401 159.667 70.6401 165.09C70.6401 170.513 75.0366 174.91 80.4601 174.91Z" stroke="#262626" stroke-width="7" stroke-linecap="round" stroke-linejoin="round"/>
<path d="M152.46 188C165.113 188 175.37 177.743 175.37 165.09C175.37 152.437 165.113 142.18 152.46 142.18C139.807 142.18 129.55 152.437 129.55 165.09C129.55 177.743 139.807 188 152.46 188Z" stroke="#262626" stroke-width="7" stroke-linecap="round" stroke-linejoin="round"/>
<path d="M152.46 174.91C157.884 174.91 162.28 170.513 162.28 165.09C162.28 159.667 157.884 155.27 152.46 155.27C147.037 155.27 142.64 159.667 142.64 165.09C142.64 170.513 147.037 174.91 152.46 174.91Z" stroke="#262626" stroke-width="7" stroke-linecap="round" stroke-linejoin="round"/>
</svg>
